<svg xmlns="http://www.w3.org/2000/svg" viewBox="0 0 506 167" fill="currentColor">
  <path fill-rule="evenodd" d="
    M 185 9
    C 195 12, 206 16, 218 22
    C 211 40, 197 61, 178 80
    C 150 105, 112 126, 79 138
    C 62 144, 48 148, 39 143
    C 30 137, 22 126, 15 115
    C 54 107, 92 90, 127 70
    C 150 54, 170 33, 185 9
    Z
    M 189 20 L 204 25 L 198 36 L 183 31 Z
    M 177 37 L 192 43 L 184 53 L 169 46 Z
    M 160 53 L 177 61 L 165 72 L 150 63 Z" />
  <path fill-rule="evenodd" d="
    M 235 22
    C 247 21, 259 21, 271 22
    C 273 62, 277 101, 284 140
    C 265 141, 243 141, 221 140
    C 228 101, 232 62, 235 22
    Z
    M 246 29.5 C 251 29.5, 256 29.5, 261 29.5 L 261 40 C 256 40, 251 40, 245 40 Z
    M 245 47.5 C 251 47.5, 256 47.5, 261 47.5 L 261 60 C 256 60, 251 60, 245 60 Z
    M 245 67.5 C 250 67.5, 256 67.5, 262 67.5 L 262 81 C 256 81, 251 81, 244 81 Z" />
  <path fill-rule="evenodd" d="
    M 319 9
    C 308 12, 297 16, 289 22
    C 295 40, 309 61, 328 80
    C 356 105, 394 126, 427 138
    C 444 144, 458 148, 467 143
    C 476 137, 484 126, 491 115
    C 452 107, 414 90, 379 70
    C 356 54, 336 33, 319 9
    Z
    M 303 25 L 319 21 L 324 31 L 309 36 Z
    M 315 43 L 330 37 L 337 46 L 323 53 Z
    M 329 61 L 344 52 L 356 63 L 340 72 Z" />
</svg>
